<svg 
 xmlns="http://www.w3.org/2000/svg"
 xmlns:xlink="http://www.w3.org/1999/xlink"
 width="16px" height="15px">
<path fill-rule="evenodd"  fill="rgb(255, 255, 255)"
 d="M13.155,3.508 L13.155,5.430 L12.191,5.430 L12.191,3.508 L10.264,3.508 L10.264,2.549 L12.191,2.549 L12.191,0.627 L13.155,0.627 L13.155,2.549 L15.84,2.549 L15.84,3.508 L13.155,3.508 ZM7.897,1.413 C8.672,1.854 9.83,2.764 9.83,3.766 C9.83,4.688 8.571,5.428 7.849,5.992 C7.142,6.541 7.10,6.772 7.10,7.236 C7.10,7.635 7.852,8.231 8.239,8.519 C9.588,9.527 9.862,10.162 9.862,11.424 C9.862,12.998 8.161,14.563 5.392,14.563 C2.964,14.563 0.915,13.578 0.915,12.6 C0.915,10.406 2.616,8.742 5.43,8.742 C5.307,8.742 5.550,8.737 5.801,8.737 C5.468,8.414 5.201,8.135 5.201,7.649 C5.201,7.362 5.292,7.86 5.422,6.838 C5.290,6.848 5.155,6.854 5.18,6.854 C3.22,6.854 1.860,5.459 1.860,3.707 C1.860,1.992 3.629,0.436 5.749,0.436 L9.928,0.436 L8.995,1.413 L7.897,1.413 ZM5.593,9.234 C3.914,9.215 2.493,10.291 2.493,11.537 C2.493,12.809 3.705,13.865 5.383,13.865 C7.743,13.865 8.565,12.873 8.565,11.602 C8.565,11.448 8.545,11.299 8.511,11.154 C8.327,10.434 7.592,10.39 6.680,9.408 C6.350,9.301 5.985,9.239 5.593,9.234 ZM7.404,3.830 C7.209,2.355 6.246,1.146 5.120,1.111 C3.994,1.78 3.237,2.207 3.434,3.682 C3.626,5.155 4.697,6.184 5.824,6.219 C6.950,6.252 7.598,5.303 7.404,3.830 Z"/>
</svg>